<svg width="67" height="134" viewBox="0 0 67 134" fill="none" xmlns="http://www.w3.org/2000/svg">
<path d="M50.6367 1.08024L48.9918 0.893162C38.5054 -0.297721 27.9232 -0.297721 17.4368 0.893162L15.792 1.08024C10.628 1.66655 6.65957 6.02285 6.45539 11.3294C5.0626 47.487 4.77173 83.68 5.58162 119.856C5.72534 126.252 10.5117 131.534 16.7387 132.17L19.1171 132.413C28.6133 133.381 38.1815 133.374 47.6766 132.393L49.7059 132.183C55.9261 131.54 60.7033 126.261 60.8459 119.872V119.857C61.6557 83.6812 61.3649 47.4881 59.9721 11.3305C59.7679 6.02285 55.7994 1.66655 50.6367 1.08024Z" fill="#4870FF"/>
<path d="M56.1861 115.998V116.013C56.0731 121.835 52.1822 126.644 47.1221 127.234L45.4716 127.426C45.1328 127.464 44.7985 127.504 44.4598 127.534C37.0658 128.32 29.6239 128.286 22.2345 127.44L20.2988 127.219C17.7641 126.929 15.5238 125.583 13.9029 123.579C12.282 121.575 11.2793 118.917 11.2211 115.999C11.0341 106.695 10.9211 97.39 10.8778 88.0808C10.863 85.2656 10.8584 82.4458 10.8584 79.6306C10.8584 67.4274 10.9816 55.2243 11.2314 43.0258C11.4036 34.3896 11.6341 25.7523 11.9341 17.1206C12.1006 12.2818 15.3288 8.31223 19.5288 7.7818L20.8703 7.60956C22.0395 7.46241 23.2087 7.32895 24.3779 7.22629C31.757 6.54301 39.1795 6.67077 46.5438 7.60956L47.8853 7.7818C49.983 8.04759 51.84 9.17231 53.1963 10.8377C54.5469 12.4986 55.3967 14.699 55.4811 17.1206C56.6081 50.065 56.8488 83.0389 56.1861 115.998Z" fill="#9EB3FF" fill-opacity="0.54"/>
<path d="M8.01351 46.4877L1.28913 49.1524C0.886471 49.3121 0.430194 49.1148 0.270497 48.7121C-0.509736 46.7398 0.455289 44.5086 2.42755 43.7273L6.30932 42.1896C6.71198 42.0299 7.16826 42.2273 7.32796 42.6299L8.45268 45.4703C8.61352 45.8718 8.41618 46.3281 8.01351 46.4877Z" fill="#4870FF"/>
<path d="M58.5415 46.4866L65.2693 49.1524C65.6708 49.3121 66.1259 49.1147 66.2845 48.7132L66.2902 48.6995C67.0693 46.7341 66.1065 44.5098 64.1411 43.7307L60.2445 42.1862C59.843 42.0265 59.3879 42.2238 59.2293 42.6254L58.1023 45.4702C57.9438 45.8729 58.14 46.328 58.5415 46.4866Z" fill="#4870FF"/>
<path d="M57.1191 42.4897V98.322C57.1191 98.8775 56.8681 99.3737 56.47 99.7079C56.2099 99.9292 55.8803 100.076 55.5164 100.121C55.3008 100.146 55.0795 100.174 54.8582 100.2C48.6483 100.922 41.7015 101.403 34.1364 101.413C31.6953 101.418 29.317 101.369 27.0082 101.281C21.7223 101.085 16.7899 100.667 12.2602 100.122C11.3465 100.014 10.6587 99.2425 10.6587 98.3242V42.4897C10.6587 41.6592 11.2233 40.9326 12.0298 40.7307C16.4066 39.6505 21.8352 38.6478 28.0987 38.2543C29.8531 38.1368 31.6702 38.0729 33.5524 38.0672C42.4543 38.033 50.0148 39.3106 55.748 40.7296C55.7582 40.7341 55.7731 40.7341 55.7822 40.7398C56.3172 40.8824 56.7449 41.2611 56.956 41.7425C57.0598 41.9741 57.1191 42.225 57.1191 42.4897Z" fill="white"/>
<path d="M51.9976 92.3107C51.9976 93.7965 50.8309 95.0427 49.288 95.2037C44.7238 95.6804 39.6675 95.9923 34.1912 95.9999C28.5651 96.0075 23.3785 95.6918 18.7108 95.2037C17.1678 95.0427 16 93.7965 16 92.3107V53.52C16 52.1597 16.9815 50.9833 18.3674 50.6815C22.5188 49.7776 27.726 49.022 33.737 49.0005C39.9781 48.9777 45.3692 49.7535 49.6302 50.6815C51.016 50.9833 52 52.1597 52 53.52V92.3107H51.9976Z" fill="#4870FF"/>
<path d="M19.2323 57.6951L17.8818 58.2848L10.7627 41.8953C10.7627 41.8953 10.7627 41.8953 10.7627 41.8908C10.9395 41.3752 11.3524 40.9577 11.8874 40.7752L19.2323 57.6951Z" fill="#4870FF"/>
<path d="M56.957 41.7436L49.7752 58.2848L48.4189 57.6951L55.7833 40.741C56.3182 40.8836 56.746 41.2611 56.957 41.7436Z" fill="#4870FF"/>
<path d="M17.082 74.6731H7.99414V76.1469H17.082V74.6731Z" fill="#4870FF"/>
<path d="M18.8251 94.2793L12.7383 100.174C12.5809 100.16 12.4189 100.14 12.2615 100.121C11.8486 100.072 11.4802 99.8847 11.2007 99.6098L17.7984 93.223L18.8251 94.2793Z" fill="#4870FF"/>
<path d="M59.5773 74.6731H50.4883V76.1469H59.5773V74.6731Z" fill="#4870FF"/>
<path d="M56.4712 99.7079C56.2111 99.9291 55.8814 100.076 55.5176 100.121C55.302 100.146 55.0807 100.174 54.8594 100.199L48.7476 94.2793L49.7742 93.223L56.4712 99.7079Z" fill="#4870FF"/>
<path d="M20.0796 2.07492C20.2735 2.0772 20.3921 2.28138 20.3032 2.45363C19.8731 3.28747 18.4096 4.97341 13.6233 7.30613C12.6685 7.77153 10.7316 8.8415 9.57268 9.87839C9.41869 10.0164 9.17572 9.9263 9.14607 9.72211C9.00462 8.71032 9.01489 6.25897 11.8632 4.29698C14.9339 2.18328 18.8568 2.05781 20.0796 2.07492Z" fill="#FF8888"/>
<path d="M46.383 2.07492C46.1891 2.0772 46.0705 2.28138 46.1595 2.45363C46.5895 3.28747 48.053 4.97341 52.8393 7.30613C53.7941 7.77153 55.731 8.8415 56.8899 9.87839C57.0439 10.0164 57.2869 9.9263 57.3166 9.72211C57.458 8.71032 57.4477 6.25897 54.5994 4.29698C51.5287 2.18328 47.6047 2.05781 46.383 2.07492Z" fill="#FF8888"/>
<path d="M57.7373 124.306L56.6319 124.332C56.3148 124.34 56.0205 124.501 55.8506 124.769C55.1639 125.853 53.0171 128.663 49.0315 129.035C48.646 129.072 48.322 129.342 48.2114 129.714L47.9992 130.429C47.9296 130.665 48.1144 130.899 48.3596 130.88C50.0832 130.744 55.7764 129.91 58.0692 124.794C58.1742 124.561 57.9916 124.3 57.7373 124.306Z" fill="#FF8888"/>
<path d="M9.08675 124.306L10.1921 124.332C10.5092 124.34 10.8035 124.501 10.9735 124.769C11.6602 125.853 13.8069 128.663 17.7925 129.035C18.1781 129.072 18.502 129.342 18.6127 129.714L18.8248 130.429C18.8944 130.665 18.7096 130.899 18.4644 130.88C16.7408 130.744 11.0476 129.91 8.75481 124.794C8.64987 124.561 8.83238 124.3 9.08675 124.306Z" fill="#FF8888"/>
<path d="M22.6598 3.3639L22.5366 2.38861C22.6507 2.37378 34.0565 0.96845 43.8539 2.38975L43.7136 3.36162C34.0462 1.96085 22.7727 3.34907 22.6598 3.3639Z" fill="white"/>
<path d="M34.328 131.837C26.7766 131.837 20.5485 131.173 20.4561 131.163L20.6682 129.208C20.8062 129.224 34.6075 130.693 45.898 129.211L46.1536 131.159C42.2878 131.668 38.1391 131.837 34.328 131.837Z" fill="#B1B1B1"/>
<path d="M13.4787 38.8645L13.3589 38.3877C13.587 38.3307 36.4088 32.7253 53.4725 38.3934L53.3173 38.86C36.3906 33.2364 13.7057 38.8075 13.4787 38.8645Z" fill="#4870FF"/>
<path d="M34.4092 104.426C22.6236 104.426 13.506 102.596 13.3691 102.569L13.4684 102.087C13.6726 102.13 34.0932 106.225 53.3447 102.087L53.4473 102.568C46.9625 103.96 40.3465 104.426 34.4092 104.426Z" fill="#4870FF"/>
<path d="M34.4092 106.513C22.6236 106.513 13.506 104.684 13.3691 104.656L13.4684 104.175C13.6726 104.217 34.0932 108.312 53.3447 104.175L53.4473 104.655C46.9625 106.049 40.3465 106.513 34.4092 106.513Z" fill="#4870FF"/>
</svg>
