<svg width="63" height="63" viewBox="0 0 63 63" fill="none" xmlns="http://www.w3.org/2000/svg">
<g clip-path="url(#clip0_1_7)">
<path d="M42 15.75L49.875 26.25H55.125C58.0387 26.25 60.375 28.5863 60.375 31.5V39.375H55.125C55.125 43.7325 51.6075 47.25 47.25 47.25C42.8925 47.25 39.375 43.7325 39.375 39.375H23.625C23.625 43.7325 20.1075 47.25 15.75 47.25C11.3925 47.25 7.875 43.7325 7.875 39.375H2.625V31.5C2.625 28.5863 4.96125 26.25 7.875 26.25L15.75 15.75H42ZM27.5625 19.6875H17.7188L12.7575 26.25H27.5625V19.6875ZM31.5 19.6875V26.25H44.9925L40.0312 19.6875H31.5ZM15.75 35.4375C13.5712 35.4375 11.8125 37.1963 11.8125 39.375C11.8125 41.5537 13.5712 43.3125 15.75 43.3125C17.9288 43.3125 19.6875 41.5537 19.6875 39.375C19.6875 37.1963 17.9288 35.4375 15.75 35.4375ZM47.25 35.4375C45.0713 35.4375 43.3125 37.1963 43.3125 39.375C43.3125 41.5537 45.0713 43.3125 47.25 43.3125C49.4287 43.3125 51.1875 41.5537 51.1875 39.375C51.1875 37.1963 49.4287 35.4375 47.25 35.4375Z" fill="white"/>
</g>
<defs>
<clipPath id="clip0_1_7">
<rect width="63" height="63" fill="white"/>
</clipPath>
</defs>
</svg>
